PathFileType	4	(X/Y/Z)	Kaydara	
DataRate	CameraRate	NumFrames	NumMarkers	Units	OrigDataRate	OrigDataStartFrame	OrigNumFrames	
120.00	120.00	4	72	mm	120.00	1	261	
Frame#	Time	Hips			RightUpLeg			RightLeg			RightFoot			RightFoot_End			LeftUpLeg			LeftLeg			LeftFoot			LeftFoot_End			Spine			Spine1			Spine2			Spine3			Neck			Head			Head_End			RightShoulder			RightArm			RightForeArm			RightHand			RightHandThumb1			RightHandThumb2			RightHandThumb3			RightHandThumb3_End			RightInHandIndex			RightHandIndex1			RightHandIndex2			RightHandIndex3			RightHandIndex3_End			RightInHandMiddle			RightHandMiddle1			RightHandMiddle2			RightHandMiddle3			RightHandMiddle3_End			RightInHandRing			RightHandRing1			RightHandRing2			RightHandRing3			RightHandRing3_End			RightInHandPinky			RightHandPinky1			RightHandPinky2			RightHandPinky3			RightHandPinky3_End			LeftShoulder			LeftArm			LeftForeArm			LeftHand			LeftHandThumb1			LeftHandThumb2			LeftHandThumb3			LeftHandThumb3_End			LeftInHandIndex			LeftHandIndex1			LeftHandIndex2			LeftHandIndex3			LeftHandIndex3_End			LeftInHandMiddle			LeftHandMiddle1			LeftHandMiddle2			LeftHandMiddle3			LeftHandMiddle3_End			LeftInHandRing			LeftHandRing1			LeftHandRing2			LeftHandRing3			LeftHandRing3_End			LeftInHandPinky			LeftHandPinky1			LeftHandPinky2			LeftHandPinky3			LeftHandPinky3_End			
		X1	Y1	Z1	X2	Y2	Z2	X3	Y3	Z3	X4	Y4	Z4	X5	Y5	Z5	X6	Y6	Z6	X7	Y7	Z7	X8	Y8	Z8	X9	Y9	Z9	X10	Y10	Z10	X11	Y11	Z11	X12	Y12	Z12	X13	Y13	Z13	X14	Y14	Z14	X15	Y15	Z15	X16	Y16	Z16	X17	Y17	Z17	X18	Y18	Z18	X19	Y19	Z19	X20	Y20	Z20	X21	Y21	Z21	X22	Y22	Z22	X23	Y23	Z23	X24	Y24	Z24	X25	Y25	Z25	X26	Y26	Z26	X27	Y27	Z27	X28	Y28	Z28	X29	Y29	Z29	X30	Y30	Z30	X31	Y31	Z31	X32	Y32	Z32	X33	Y33	Z33	X34	Y34	Z34	X35	Y35	Z35	X36	Y36	Z36	X37	Y37	Z37	X38	Y38	Z38	X39	Y39	Z39	X40	Y40	Z40	X41	Y41	Z41	X42	Y42	Z42	X43	Y43	Z43	X44	Y44	Z44	X45	Y45	Z45	X46	Y46	Z46	X47	Y47	Z47	X48	Y48	Z48	X49	Y49	Z49	X50	Y50	Z50	X51	Y51	Z51	X52	Y52	Z52	X53	Y53	Z53	X54	Y54	Z54	X55	Y55	Z55	X56	Y56	Z56	X57	Y57	Z57	X58	Y58	Z58	X59	Y59	Z59	X60	Y60	Z60	X61	Y61	Z61	X62	Y62	Z62	X63	Y63	Z63	X64	Y64	Z64	X65	Y65	Z65	X66	Y66	Z66	X67	Y67	Z67	X68	Y68	Z68	X69	Y69	Z69	X70	Y70	Z70	X71	Y71	Z71	X72	Y72	Z72	

1	0.0	1081.203	893.81699	129.612	1146.0329430805746	887.8659227515209	74.59889260521679	1062.1465525461103	488.24002133549715	-16.81935423028082	1045.9977453149447	106.83833982923403	-72.03390171270017	938.4428158190874	28.789938940654167	63.15733556094846	1031.2640326545861	874.9415249077144	197.99914856408785	932.0904114161892	481.4741520536914	301.2383548374126	834.3322837164209	65.5808514430255	404.3306240249053	687.2612705390625	-1.7244673606275256	304.32439114512476	1014.9056024992204	1009.5428913525067	79.01874187228943	951.8607059475837	1066.1200774226704	32.14415330791622	881.9952723593149	1118.1106494813632	-18.591947247090225	809.3420630309995	1156.1283491558809	-69.679930906211	730.9922566693589	1198.5586096274073	-122.09079863038207	657.0612392144728	1235.2342082691082	-166.95787493006807	518.6729247883795	1314.0672640770572	-174.11912021784525	772.1849614703231	1184.1191895876975	-125.87601239573537	814.2908126126773	1159.2255206104835	-209.393106593615	844.3166709071354	942.7662330615201	-181.90541767678505	891.6851437673594	754.5804913334524	-174.18877529178212	880.2748408212552	741.685940052093	-192.50165219755573	863.8291075744388	723.969297799764	-192.59086602912691	854.6094161618669	710.0179828875537	-189.84815372896958	848.8337310500112	697.0071145166553	-185.16220152063985	888.3429259075385	734.3983036008243	-185.3225097847496	886.7107981679925	698.9589017851338	-186.7575392671444	879.6467512560052	676.0101817727918	-181.37147685869056	870.3085849985144	666.7478504280633	-176.69183155060497	859.2428534536127	662.4573614350102	-171.92059344276137	894.191682696787	731.3249392006661	-177.340369635092	895.7650306608696	695.0955317735185	-174.42433188057242	888.8263714979097	669.7654889412456	-167.4812143382959	877.9295204901127	658.4524331229984	-161.32391343018702	866.0011372570942	653.690584970757	-155.85466572313842	898.439941342717	730.0229653713881	-171.7111498315628	903.7556558085146	696.3215758702422	-164.34808857374082	898.4912188953858	674.0064940771811	-157.2111046629278	888.3963233645934	662.968131249858	-150.6955201743124	877.37774829692	658.4310876792266	-145.27991999783006	902.796938132123	729.8247937104285	-164.8130710299578	910.6079100297266	698.6630320577465	-153.96451112574275	907.590688714364	680.5709138648135	-146.58799418534878	900.8071086820191	672.4116043735695	-141.0317939256419	891.3800564277025	668.3304368136547	-135.77189976910904	741.5167407101208	1183.4388232714857	-83.20327373905441	715.2567957724697	1138.765065356764	3.9302626992490324	845.657944995476	966.3978164749574	-64.07134039408473	951.248481023231	809.3939499073379	-132.22033917249254	947.9460774389421	805.5518668495326	-157.19331513806438	966.3964115143777	799.8898877397523	-172.51311954880956	981.630003681173	793.7351687997298	-180.62308516529384	996.3696920288841	786.7121866390609	-185.19507131769157	954.7581689021695	796.592886196231	-150.83891388665452	975.177245845785	771.762435695611	-167.5213679656417	997.045050729535	758.1048258913015	-176.31686700865868	1011.3167617671071	755.3303684163211	-181.03031709281586	1023.5857922726831	756.8898981849704	-184.42257609849386	960.897672287115	791.6137697572603	-143.16514329558257	984.1324946976665	764.7006623237678	-155.28676628894547	1008.7480440479776	749.2255701809432	-163.81423544822457	1026.3278946883509	745.6038688241214	-168.98730589571878	1039.9281892849588	747.1768694771959	-172.44939043216965	964.6560553026706	788.6734896816588	-137.3330775040321	988.5716398894733	761.8372300583231	-143.1781857713856	1010.7607510969581	747.8075611861354	-149.4976710488974	1028.107761181729	744.0265731802353	-153.89639179099694	1041.080206763575	745.3693258231581	-156.8715103144191	968.8539914129713	786.4465431253677	-130.0085371718639	993.1888454650647	760.2630763734395	-130.91035209460622	1011.9984825720666	748.3012404268201	-134.20862213619523	1025.1552383018654	745.1915172842439	-136.56465472602397	1036.9366432000418	746.1784727120685	-138.7095587718221
2	0.008	1081.203	893.81699	129.612	1146.5513992100114	888.170023579979	74.84292244190362	1062.2232172730555	488.5811062300949	-16.356750512789546	1045.6626942448877	106.88415635946151	-70.71587119765454	937.8883305384996	29.029637408916205	64.52280565844407	1030.728336051795	874.6288011977607	197.75839241894403	931.4627745351276	481.281693247462	301.3787626809145	833.4870464010123	65.72130304855217	405.47488075499257	686.3972032712122	-1.2827574465726181	305.32279868192796	1014.914113567289	1009.5680616062845	79.04237490447004	951.9001255433832	1066.1646013217776	32.143297882310215	882.0746136041193	1118.1770149341774	-18.633513754776445	809.4794470802435	1156.2256807925562	-69.79121610087127	731.1797703208636	1198.6871377492491	-122.2625154678382	657.2150121800701	1235.3303953408022	-167.12506451159567	518.8266604933182	1314.1481598421603	-174.47741005189295	772.5138709864655	1184.4834523753186	-125.98064617712714	815.3445404308623	1160.6914063348017	-209.5291111394141	846.2716773688724	943.9722625276063	-184.03870643712594	895.628579361956	756.612903904912	-177.99264555886364	884.4491293333676	744.0060556953522	-196.43000665281986	868.1463215777981	726.4527582312636	-196.9126918063005	859.0239839098049	712.5936586482859	-194.46582486636547	853.3275763886779	699.6412348517513	-190.0451961635304	892.5429728212407	736.6778689552476	-189.3231163972528	891.2409842094614	701.4918300498703	-191.21542281130164	884.3402243995104	678.6645811640689	-186.24082385495495	875.0432619719721	669.4455399410972	-181.81488643590035	863.9709604504377	665.169153031276	-177.2522406503124	898.3711056829949	733.5344973424525	-181.38888953650445	900.2553403006917	697.514366000909	-178.94475616700288	893.4909853774302	672.3067347067879	-172.45557308309722	882.6419907709571	661.0410500193022	-166.6067488057078	870.7055068157055	656.2922698995366	-161.36689436647043	902.5971045682601	732.1770607918713	-175.78113394474477	908.1742232425016	698.616447627215	-168.85754980970654	903.0572601202825	676.3973703311256	-162.12055197413997	893.0061535167575	665.3990297696466	-155.90481322706066	881.9788479499182	660.8715805600692	-150.70598443995485	906.91316253511	731.9039535366313	-168.900170272476	914.9411919869776	700.8267524547974	-158.4629953836609	912.0339577719108	682.7942301325195	-151.4116204442271	905.278403412095	674.6557489225386	-146.07646554174738	895.8413583980396	670.5782616632517	-141.00994702509942	741.533094680674	1183.3051491727435	-83.41573269512698	714.6539178073615	1137.661095552374	3.2679300227775454	846.3857937639209	966.5866085949733	-65.92043478187026	953.7097476243684	810.8984177525549	-135.10700690996487	950.668115248825	807.3120771492994	-160.00217777504176	969.3532405120511	801.8240284925607	-175.10279751299754	984.7495983763326	795.7778091830572	-183.08257237716433	999.6243476536733	788.8344799531651	-187.5652198485362	957.5086300702314	798.3398468847795	-153.74221237223293	978.335916907957	773.796260203678	-170.4418016401656	1000.4495429504792	760.2927166255727	-179.1363448790472	1014.822019452719	757.5770662592404	-183.7054643707383	1027.139316842065	759.1603270865469	-186.92324281281526	963.6300853832022	793.3142541289011	-146.12352097959416	987.2533113932889	766.6558148049963	-158.29167548892477	1012.1333569352412	751.3417253958784	-166.71605573391588	1029.8329636736623	747.787550645574	-171.7183892435355	1043.4852074017026	749.3848551967683	-174.99121361521324	967.3657652812115	790.3342477737137	-140.33123000407775	991.611097573849	763.693027777591	-146.25635384065797	1014.0262806261647	749.79600435303	-152.4931304839405	1031.4864466585193	746.0760706247828	-156.73095288468323	1044.5066170177797	747.439747810533	-159.5299078045412	971.5220493119671	788.0497767593091	-133.0418171723288	996.1353588097716	762.0112789943194	-134.04303790642845	1015.1176427591877	750.1428263488662	-137.28585118624386	1028.3528673577516	747.0714166369959	-139.52974046193054	1040.1742152627112	748.0733326203334	-141.52159195946948
3	0.017	1081.203	893.81699	129.612	1147.0474503841715	888.4487416286536	75.0762575722806	1062.369317630768	488.8785768607638	-15.903694166464444	1045.8687706508135	106.92599565359119	-69.57850098223768	937.85931764519	29.279092352735272	65.70172483351438	1030.215871177076	874.3432128029933	197.53049304446608	930.9100701788553	481.0272687259447	301.2267673168137	832.7040458583399	65.79155432426086	406.26277558186064	685.5843436762023	-0.887914089101654	305.9598129681419	1014.922162686044	1009.5875514996201	79.05384913971704	951.936346467295	1066.1989358796527	32.12945386261224	882.1486200333637	1118.2305596058354	-18.68698433089139	809.608204973713	1156.3075921786897	-69.91058672873201	731.3550680525952	1198.7973370196198	-122.43830539118005	657.3502352682168	1235.4050854257468	-167.28867418335014	518.956929288478	1314.2262102085579	-174.5934117689525	772.8253049658416	1184.820835078751	-126.09112682121206	816.3685927936862	1162.0786463810746	-209.65303799174032	848.2108045553587	945.1504542368629	-185.9791024994498	899.6297404080167	758.6099350495409	-181.511128230738	888.6787703383463	746.2729812213059	-200.04632783493201	872.5299540003252	728.8792261420259	-200.89448658840982	863.5147547124334	715.1124089096484	-198.72523620222958	857.9075964329936	702.2208295311668	-194.555792638122	896.8050490111289	738.9115810557374	-193.01382480390328	895.850489258582	703.9763632303329	-195.3301749035833	889.1285699438868	681.2730022990514	-190.74336618889959	879.8813569431434	672.0990517915538	-186.55770146525344	868.8087961378243	667.8384381183299	-182.19336309443372	902.6178727261166	735.705878920241	-185.13205013355685	904.8327006398146	699.8966927743433	-183.12986055152058	898.2602717037324	674.815156766038	-177.0695066581727	887.469748843937	663.5995022402121	-171.51326800969528	875.5322315758522	658.865859485491	-166.49171419514673	906.8248919784862	734.2984521567743	-179.54983489141495	912.6838939406972	700.8847804566942	-173.04240470042475	907.7303720849167	678.7659730970047	-166.68427075710298	897.7336426049983	667.8107698225342	-160.75346698585426	886.7043902500893	663.2951294559869	-155.7611814256582	911.1034267593363	733.9569851759471	-172.69157015909084	919.3693655075422	702.9739852303971	-162.6478611611823	916.5858067329295	685.0060662243443	-155.90600546807417	909.8664259816796	676.8914606918479	-150.7816567132281	900.4256535499634	672.820073370201	-145.89981223055162	741.5448264529311	1183.1639064095993	-83.63261326713615	714.0574608604079	1136.6098316944185	2.6147448140817864	847.0967516406963	966.8117182612456	-67.6909711103169	956.1420730935364	812.4215686692302	-137.7651650887837	953.313416704624	809.1048982875789	-162.57063039016379	972.190545808075	803.7835794106716	-177.4721747626379	987.7225103204183	797.838486972122	-185.33916284209255	1002.7119257107214	790.9666257976596	-189.74991741747291	960.1869777131013	800.1137274482163	-156.4140106564171	981.3681663533242	775.8539915455101	-173.14864808225735	1003.6921741425354	762.4940885388062	-181.76683099531115	1018.1467323370691	759.8283489889936	-186.20938323062316	1030.4991323423621	761.4263442484465	-189.26904357221997	966.2995589993218	795.0348972193622	-148.859642724101	990.2631809403933	768.6245440813831	-161.0968129843814	1015.3704229563668	753.4591768091993	-169.44611061380493	1033.167938377153	749.9613758888863	-174.29969846084194	1046.8580222834423	751.5729347897018	-177.4014402253979	970.0203841318411	792.0105536142295	-143.1131029888486	994.5591845093049	765.5546341082095	-149.14329559020103	1017.1694505867847	751.7786600308808	-155.32293768835163	1034.7224764214832	748.1085387272658	-159.42169476417524	1047.7774815591392	749.4834552965581	-162.0618896036896	974.1457657838366	789.6627538534929	-135.86595997793958	999.0108147791854	763.7569815091691	-136.99364383388172	1018.1434128498827	751.9712445273836	-140.2032067295721	1031.4435244594226	748.9293040096996	-142.35170422828543	1043.2940849424228	749.9372178945144	-144.20639809021068
4	0.025	1081.203	893.81699	129.612	1147.5314984008699	888.7351434836988	75.30153830110292	1062.5055816582492	489.1767088598654	-15.429867483523163	1044.825409057241	106.88129512922636	-68.06726736747238	936.5833231495791	29.43857329411999	67.25359022788439	1029.7182158705443	874.0496116174467	197.30635201809022	930.3839368022698	480.7634837069705	301.08511388401297	831.973306836388	65.8524513038632	407.09016357141496	684.8320387423651	-0.5280489275362202	306.64513380864236	1014.9187177869194	1009.6077863283122	79.08439135418868	951.958538029184	1066.233595833685	32.138185125156625	882.2065540553133	1118.2816493921212	-18.717022154548093	809.722821757297	1156.3849331139118	-70.01015820286531	731.5185182382095	1198.9009160271053	-122.59870048373725	657.4781585209284	1235.469229887645	-167.44643204369177	519.0748023761748	1314.2699120460875	-174.82793298892463	773.1255263630803	1185.1532260615736	-126.18295850996839	817.3742748069689	1163.4600713330865	-209.75047474404332	850.1503100080323	946.33272989565	-187.8929380939038	903.6070636514032	760.6331272680858	-184.99231966263417	892.8853654323394	748.5717512927046	-203.6250615966109	876.8916310677082	731.3412727837226	-204.8409484339439	867.9841523593499	717.6688784938063	-202.95114573515224	862.4665472517725	704.8395066713581	-199.03465920116935	901.0433512411958	741.1761306624046	-196.6677577422955	900.4359268032046	706.4965952201594	-199.41066520600765	893.8931356132607	683.9197681717467	-195.2142994628454	884.696305825963	674.7921332701593	-191.27059794240014	873.6243063205326	670.5480441739008	-187.10602577841377	906.8403399474853	737.9066468590954	-188.83914074377944	909.3852161296797	702.3123541815279	-187.2817251590769	903.0049537715694	677.359575078326	-181.653162636484	892.2736344905718	666.1953318519281	-176.39161126094785	880.3359645927457	661.4775934723914	-171.58998412970578	911.0280179975196	736.4480753449209	-183.2828770753964	917.1680624874871	703.1838974293423	-177.19450983629852	912.3781568816551	681.1674589136591	-171.21790355397576	902.4364593223687	670.2566065296135	-165.5740981164973	891.406093059284	665.7534401346248	-160.78990072689683	915.2686845067299	736.0367285817857	-176.44778669835821	923.7715025228738	705.1493473422574	-166.80046681637089	921.111659295265	687.2473619790676	-160.370385365348	914.4288868315264	679.1573569045705	-155.45840524751785	904.985092084034	675.0925493326547	-150.7626367432	741.5425773382818	1183.015784190494	-83.83449853935367	713.4503284019892	1135.5495691496878	1.9703589190655946	847.7980283774835	967.0294067272623	-69.42310333610804	958.5713515348104	813.9731989410179	-140.47912290511982	955.9786089576414	810.9275260994007	-165.20041080687417	975.066084380429	805.7780599939033	-179.89173539296993	990.7446262490357	799.9379119127615	-187.6369046414947	1005.8563075446575	793.1409555149603	-191.96711563093953	962.8811172294991	801.918292620084	-159.1443563771502	984.4372761838982	777.947942067569	-175.90766476040463	1006.9850152309618	764.736915160436	-184.43784855154664	1021.5290722729311	762.1244389649486	-188.74419865552082	1033.9220829783512	763.740027131298	-191.63616806050726	968.9791304928057	796.7868641945099	-151.6506944517816	993.3006215285633	770.630327066834	-163.9486913915822	1018.6488193116488	755.6194716439132	-172.20975268300273	1036.552775002753	752.182117863785	-176.90276076875085	1050.286563460933	753.8110723929426	-179.82282578016287	972.6805546771723	793.718460264683	-145.94757018128888	997.5245573724542	767.4532322946059	-152.0736758136188	1020.3410049676443	753.8033943800464	-158.18425251801574	1037.9946822477857	750.1870592484488	-162.1322859179205	1051.089817233113	751.5761811161086	-164.60362329180577	976.7691445023414	791.3076092164116	-138.7397032670248	1001.8930750845271	765.5396063605207	-139.98380093740778	1021.1834739693277	753.8407443170057	-143.14987108086996	1034.553464252291	750.8311914155086	-145.19413994569297	1046.4375480736608	751.8477613548539	-146.90254430437187
